<?xml version="1.0" encoding="UTF-8"?>
<!DOCTYPE svg PUBLIC "-//W3C//DTD SVG 1.1//EN" "http://www.w3.org/Graphics/SVG/1.1/DTD/svg11.dtd">
<!-- Creator: CorelDRAW 2017 -->
<svg xmlns="http://www.w3.org/2000/svg" xml:space="preserve" width="297mm" height="420mm" version="1.1" style="shape-rendering:geometricPrecision; text-rendering:geometricPrecision; image-rendering:optimizeQuality; fill-rule:evenodd; clip-rule:evenodd"
viewBox="0 0 29700 42000"
 xmlns:xlink="http://www.w3.org/1999/xlink">
 <defs>
  <style type="text/css">
   <![CDATA[
    .fil0 {fill:none}
    .fil2 {fill:#393738}
    .fil3 {fill:#6592D3}
    .fil1 {fill:#393738;fill-rule:nonzero}
    .fil4 {fill:#6592D3;fill-rule:nonzero}
   ]]>
  </style>
 </defs>
 <g id="Layer_x0020_1">
  <metadata id="CorelCorpID_0Corel-Layer"/>
  <polyline class="fil0" points="7334,11735 6227,8774 6885,3241 7962,1985 10793,5432 12825,7582 "/>
  <polyline class="fil0" points="10478,9352 9526,6860 9202,4842 7730,3134 7347,3753 6699,8642 7479,11613 "/>
  <line class="fil0" x1="12825" y1="7582" x2="15314" y2= "8112" />
  <polyline class="fil0" points="15314,18355 14755,18377 14165,18687 14106,19136 14696,19894 15314,20145 "/>
  <polyline class="fil0" points="15314,16801 14475,17243 13090,15505 13974,14386 14003,12737 12589,10792 11028,10969 5314,17155 "/>
  <path class="fil1" d="M15314 22133l-1698 0 -1080 -1142 -547 -1390 388 -1025 275 104 -348 919 484 1232 953 1008 1572 0 1572 0 953 -1008 484 -1232 -348 -919 275 -104 388 1025 -547 1390c-360,381 -720,762 -1080,1142l-1698 0z"/>
  <polyline class="fil0" points="23295,11735 24401,8774 23743,3241 22667,1985 19836,5432 17803,7582 "/>
  <polyline class="fil0" points="20150,9352 21102,6860 21426,4842 22899,3134 23282,3753 23930,8642 23149,11613 "/>
  <line class="fil0" x1="17803" y1="7582" x2="15314" y2= "8112" />
  <polyline class="fil0" points="15314,18355 15874,18377 16463,18687 16522,19136 15933,19894 15314,20145 "/>
  <polyline class="fil0" points="15314,16801 16154,17243 17538,15505 16655,14386 16625,12737 18039,10792 19600,10969 25314,17155 "/>
  <path class="fil2" d="M10478 9352l-2999 2261 -781 -2971 648 -4890 383 -619 1473 1708 324 2018 952 2492zm-3148 2374l-13 10 -2003 5420 3300 4429 2199 624 4490 3653 11 11 4502 -3664 2199 -624 3300 -4429 -2003 -5420 -13 -10 1103 -2951 -658 -5533 -1077 -1256 -2831 3446 -2032 2150 -2489 530 -2489 -530 -2032 -2150 -2831 -3446 -1077 1256 -658 5533 1103 2951zm15819 -112l-2999 -2261 952 -2492 324 -2018 1473 -1708 383 619 648 4890 -781 2971zm-3549 -644l5411 6098 -3172 4261 -2161 613 -4364 3552 -4364 -3552 -2161 -613 -3172 -4261 5411 -6098 1561 -177 1414 1944 -29 1650 -884 1119 1384 1738 840 -442 840 442 1384 -1738 -884 -1119 -29 -1650 1414 -1944 1561 177z"/>
  <polygon class="fil2" points="15874,18377 15314,18355 14755,18377 14165,18687 14106,19136 14696,19894 15314,20145 15933,19894 16522,19136 16463,18687 "/>
  <polygon class="fil3" points="18717,16161 20411,15925 21353,14305 19851,14217 "/>
  <polygon class="fil3" points="11912,16161 10777,14217 9275,14305 10218,15925 "/>
  <path class="fil4" d="M7730 29650c-19,833 -154,2154 -407,3961 -234,1713 -351,3029 -351,3947 0,290 9,566 28,829 0,66 -28,129 -84,190 -56,61 -122,91 -197,91 -262,0 -435,-23 -520,-70 -356,-206 -534,-595 -534,-1166 0,-112 7,-288 21,-527 14,-239 21,-414 21,-527 0,-187 23,-473 70,-857 47,-384 70,-679 70,-885 -131,9 -311,-9 -541,-56 -229,-47 -396,-70 -499,-70 -122,0 -239,19 -351,56 -225,740 -356,1831 -393,3272 -318,131 -627,117 -927,-42 -215,-112 -323,-337 -323,-674 0,-75 7,-176 21,-302 14,-126 21,-204 21,-232 28,-506 136,-1507 323,-3006 159,-1255 234,-2252 225,-2992 0,-103 73,-169 218,-197 145,-28 227,-56 246,-84 56,66 192,122 407,169 178,37 286,122 323,253 75,234 112,496 112,787 0,206 -30,531 -91,976 -61,445 -91,784 -91,1018 112,84 253,136 421,155 112,19 272,23 478,14 272,-19 435,-28 492,-28 234,-983 440,-2257 618,-3820 37,-328 155,-492 351,-492 496,-47 777,56 843,309zm5941 197c-66,655 -253,1531 -562,2626 -421,1470 -665,2360 -730,2669 -206,946 -599,1807 -1180,2584 -365,496 -787,740 -1264,730 -421,-9 -735,-276 -941,-801 -356,-880 -534,-1915 -534,-3104 0,-684 66,-1564 197,-2640 -9,94 -14,-197 -14,-871 0,-581 225,-871 674,-871 94,0 194,26 302,77 108,51 213,105 316,162 9,478 -5,1180 -42,2107 -47,993 -70,1709 -70,2149 0,468 14,894 42,1278 19,197 103,571 253,1124 393,-440 702,-1025 927,-1756 75,-243 225,-908 449,-1994 178,-824 379,-1470 604,-1938 66,-131 122,-379 169,-744 47,-365 103,-618 169,-758 103,-225 281,-337 534,-337 328,0 562,103 702,309zm3413 -843c0,187 -136,351 -407,492 -75,37 -155,42 -239,14 -131,-37 -201,-56 -211,-56 -56,0 -112,28 -169,84 -506,506 -758,1124 -758,1854 0,272 42,524 126,758 37,103 393,829 1067,2177 449,899 674,1662 674,2289 0,515 -126,1011 -379,1489 -84,159 -295,365 -632,618 -272,197 -515,295 -730,295 -84,0 -164,-14 -239,-42 -281,-122 -421,-276 -421,-463 0,-112 70,-248 211,-407 37,-47 126,-75 267,-84 140,-9 234,-66 281,-169 197,-412 295,-833 295,-1264 0,-609 -302,-1491 -906,-2647 -604,-1156 -906,-2081 -906,-2774 0,-571 112,-1081 337,-1531 253,-515 613,-885 1081,-1110 215,-103 426,-154 632,-154 393,0 688,108 885,323 94,103 140,206 140,309zm5716 7725c56,47 84,112 84,197 0,56 -37,197 -112,421 -37,-9 -70,-14 -98,-14 -56,0 -129,23 -218,70 -89,47 -157,70 -204,70 -47,0 -98,-19 -155,-56 -627,-393 -1601,-983 -2921,-1770 28,346 51,843 70,1489 0,75 9,187 28,337 19,150 28,258 28,323 0,225 -98,379 -295,464 -56,37 -136,56 -239,56 -112,0 -183,-33 -211,-98 -243,-84 -384,-248 -421,-492 -112,-674 -169,-1465 -169,-2374 0,-328 9,-817 28,-1468 19,-651 28,-1140 28,-1468 0,-993 -66,-1854 -197,-2584 -19,-112 47,-187 197,-225 112,-19 229,-37 351,-56 122,37 248,82 379,133 131,51 201,133 211,246 140,1273 201,2285 183,3034 384,-346 824,-805 1320,-1376 421,-478 838,-960 1250,-1447 112,-47 234,-70 365,-70 365,0 557,126 576,379 -262,581 -777,1269 -1545,2065 -899,927 -1475,1587 -1728,1980 581,346 1166,693 1756,1039 655,412 1208,810 1657,1194zm5014 -7542c-262,1058 -744,2434 -1447,4129 -824,1976 -1353,3338 -1587,4087 -47,150 -70,337 -70,562 9,309 9,506 0,590 -28,328 -201,492 -520,492 -159,19 -330,-35 -513,-161 -183,-126 -269,-260 -260,-400 28,-684 201,-1465 520,-2345 290,-749 581,-1498 871,-2247 -665,-1779 -1231,-3081 -1699,-3905 -28,-47 -42,-94 -42,-140 0,-103 59,-199 176,-288 117,-89 232,-133 344,-133 19,0 197,52 534,155 234,356 478,815 730,1376 215,478 426,955 632,1433 187,-562 375,-1119 562,-1671 215,-646 454,-1180 716,-1601 75,-131 206,-197 393,-197 262,0 482,89 660,267z"/>
 </g>
</svg>
