<?xml version="1.0" encoding="UTF-8"?>
<!DOCTYPE svg PUBLIC "-//W3C//DTD SVG 1.1//EN" "http://www.w3.org/Graphics/SVG/1.1/DTD/svg11.dtd">
<!-- Creator: CorelDRAW 2017 -->
<svg xmlns="http://www.w3.org/2000/svg" xml:space="preserve" width="297mm" height="420mm" version="1.1" style="shape-rendering:geometricPrecision; text-rendering:geometricPrecision; image-rendering:optimizeQuality; fill-rule:evenodd; clip-rule:evenodd"
viewBox="0 0 29700 42000"
 xmlns:xlink="http://www.w3.org/1999/xlink">
 <defs>
  <style type="text/css">
   <![CDATA[
    .fil0 {fill:none}
    .fil2 {fill:white}
    .fil1 {fill:white;fill-rule:nonzero}
   ]]>
  </style>
 </defs>
 <g id="Layer_x0020_1">
  <metadata id="CorelCorpID_0Corel-Layer"/>
  <polyline class="fil0" points="7334,11735 6227,8774 6885,3241 7962,1985 10793,5432 12825,7582 "/>
  <polyline class="fil0" points="10478,9352 9526,6860 9202,4842 7730,3134 7347,3753 6699,8642 7479,11613 "/>
  <line class="fil0" x1="12825" y1="7582" x2="15314" y2= "8112" />
  <polyline class="fil0" points="15314,18355 14755,18377 14165,18687 14106,19136 14696,19894 15314,20145 "/>
  <polyline class="fil0" points="15314,16801 14475,17243 13090,15505 13974,14386 14003,12737 12589,10792 11028,10969 5314,17155 "/>
  <path class="fil1" d="M15314 22133l-1698 0 -1080 -1142 -547 -1390 388 -1025 275 104 -348 919 484 1232 953 1008 1572 0 1572 0 953 -1008 484 -1232 -348 -919 275 -104 388 1025 -547 1390c-360,381 -720,762 -1080,1142l-1698 0z"/>
  <polyline class="fil0" points="23295,11735 24401,8774 23743,3241 22667,1985 19836,5432 17803,7582 "/>
  <polyline class="fil0" points="20150,9352 21102,6860 21426,4842 22899,3134 23282,3753 23930,8642 23149,11613 "/>
  <line class="fil0" x1="17803" y1="7582" x2="15314" y2= "8112" />
  <polyline class="fil0" points="15314,18355 15874,18377 16463,18687 16522,19136 15933,19894 15314,20145 "/>
  <polyline class="fil0" points="15314,16801 16154,17243 17538,15505 16655,14386 16625,12737 18039,10792 19600,10969 25314,17155 "/>
  <path class="fil2" d="M10478 9352l-2999 2261 -781 -2971 648 -4890 383 -619 1473 1708 324 2018 952 2492zm-3148 2374l-13 10 -2003 5420 3300 4429 2199 624 4490 3653 11 11 4502 -3664 2199 -624 3300 -4429 -2003 -5420 -13 -10 1103 -2951 -658 -5533 -1077 -1256 -2831 3446 -2032 2150 -2489 530 -2489 -530 -2032 -2150 -2831 -3446 -1077 1256 -658 5533 1103 2951zm15819 -112l-2999 -2261 952 -2492 324 -2018 1473 -1708 383 619 648 4890 -781 2971zm-3549 -644l5411 6098 -3172 4261 -2161 613 -4364 3552 -4364 -3552 -2161 -613 -3172 -4261 5411 -6098 1561 -177 1414 1944 -29 1650 -884 1119 1384 1738 840 -442 840 442 1384 -1738 -884 -1119 -29 -1650 1414 -1944 1561 177z"/>
  <polygon class="fil2" points="15874,18377 15314,18355 14755,18377 14165,18687 14106,19136 14696,19894 15314,20145 15933,19894 16522,19136 16463,18687 "/>
  <polygon class="fil2" points="18717,16161 20411,15925 21353,14305 19851,14217 "/>
  <polygon class="fil2" points="11912,16161 10777,14217 9275,14305 10218,15925 "/>
 </g>
</svg>
