<?xml version="1.0" encoding="UTF-8"?>
<!DOCTYPE svg PUBLIC "-//W3C//DTD SVG 1.1//EN" "http://www.w3.org/Graphics/SVG/1.1/DTD/svg11.dtd">
<!-- Creator: CorelDRAW 2017 -->
<svg xmlns="http://www.w3.org/2000/svg" xml:space="preserve" width="420mm" height="297mm" version="1.1" style="shape-rendering:geometricPrecision; text-rendering:geometricPrecision; image-rendering:optimizeQuality; fill-rule:evenodd; clip-rule:evenodd"
viewBox="0 0 42000 29700"
 xmlns:xlink="http://www.w3.org/1999/xlink">
 <defs>
  <style type="text/css">
   <![CDATA[
    .fil0 {fill:none}
    .fil2 {fill:#393738}
    .fil3 {fill:#6592D3}
    .fil1 {fill:#393738;fill-rule:nonzero}
    .fil4 {fill:#6592D3;fill-rule:nonzero}
   ]]>
  </style>
 </defs>
 <g id="Layer_x0020_1">
  <metadata id="CorelCorpID_0Corel-Layer"/>
  <polyline class="fil0" points="4219,14038 3589,12350 3964,9197 4577,8481 6190,10445 7349,11671 "/>
  <polyline class="fil0" points="6011,12680 5469,11260 5284,10110 4445,9136 4226,9489 3857,12275 4302,13968 "/>
  <line class="fil0" x1="7349" y1="11671" x2="8767" y2= "11973" />
  <polyline class="fil0" points="8767,17811 8448,17823 8112,17999 8079,18255 8414,18688 8767,18830 "/>
  <polyline class="fil0" points="8767,16925 8289,17177 7500,16186 8003,15549 8020,14609 7214,13501 6325,13601 3068,17127 "/>
  <path class="fil1" d="M8767 19963l-968 0 -615 -651 -311 -792 221 -584 157 59 -198 524 276 702 543 574 896 0 896 0 543 -574 276 -702 -198 -524 157 -59 221 584 -311 792c-205,217 -410,434 -615,651l-968 0z"/>
  <polyline class="fil0" points="13315,14038 13946,12350 13571,9197 12957,8481 11344,10445 10185,11671 "/>
  <polyline class="fil0" points="11523,12680 12065,11260 12250,10110 13089,9136 13308,9489 13677,12275 13232,13968 "/>
  <line class="fil0" x1="10185" y1="11671" x2="8767" y2= "11973" />
  <polyline class="fil0" points="8767,17811 9086,17823 9422,17999 9455,18255 9120,18688 8767,18830 "/>
  <polyline class="fil0" points="8767,16925 9246,17177 10034,16186 9531,15549 9514,14609 10320,13501 11210,13601 14466,17127 "/>
  <path class="fil2" d="M6011 12680l-1709 1289 -445 -1693 369 -2787 218 -353 839 974 185 1150 542 1420zm-1794 1353l-7 6 -1141 3089 1880 2524 1253 356 2559 2082 6 6 2565 -2088 1253 -356 1880 -2524 -1141 -3089 -7 -6 629 -1682 -375 -3153 -614 -716 -1613 1964 -1158 1225 -1418 302 -1418 -302 -1158 -1225 -1613 -1964 -614 716 -375 3153 629 1682zm9015 -64l-1709 -1289 542 -1420 185 -1150 839 -974 218 353 369 2787 -445 1693zm-2022 -367l3083 3475 -1808 2428 -1231 349 -2487 2024 -2487 -2024 -1231 -349 -1808 -2428 3083 -3475 890 -101 806 1108 -17 940 -504 638 789 990 478 -252 478 252 789 -990 -504 -638 -17 -940 806 -1108 890 101z"/>
  <polygon class="fil2" points="9086,17823 8767,17811 8448,17823 8112,17999 8079,18255 8414,18688 8767,18830 9120,18688 9455,18255 9422,17999 "/>
  <polygon class="fil3" points="10706,16560 11671,16426 12209,15502 11353,15452 "/>
  <polygon class="fil3" points="6828,16560 6182,15452 5325,15502 5863,16426 "/>
  <path class="fil4" d="M21517 11752c-16,712 -132,1841 -348,3386 -200,1465 -300,2589 -300,3374 0,248 8,484 24,708 0,56 -24,110 -72,162 -48,52 -104,78 -168,78 -224,0 -372,-20 -444,-60 -304,-176 -456,-508 -456,-997 0,-96 6,-246 18,-450 12,-204 18,-354 18,-450 0,-160 20,-404 60,-732 40,-328 60,-580 60,-756 -112,8 -266,-8 -462,-48 -196,-40 -338,-60 -426,-60 -104,0 -204,16 -300,48 -192,632 -304,1565 -336,2797 -272,112 -536,100 -792,-36 -184,-96 -276,-288 -276,-576 0,-64 6,-150 18,-258 12,-108 18,-174 18,-198 24,-432 116,-1289 276,-2569 136,-1073 200,-1925 192,-2557 0,-88 62,-144 186,-168 124,-24 194,-48 210,-72 48,56 164,104 348,144 152,32 244,104 276,216 64,200 96,424 96,672 0,176 -26,454 -78,834 -52,380 -78,670 -78,870 96,72 216,116 360,132 96,16 232,20 408,12 232,-16 372,-24 420,-24 200,-840 376,-1929 528,-3266 32,-280 132,-420 300,-420 424,-40 664,48 720,264zm5079 168c-56,560 -216,1309 -480,2245 -360,1257 -568,2017 -624,2281 -176,808 -512,1545 -1008,2209 -312,424 -672,632 -1081,624 -360,-8 -628,-236 -804,-684 -304,-752 -456,-1637 -456,-2653 0,-584 56,-1337 168,-2257 -8,80 -12,-168 -12,-744 0,-496 192,-744 576,-744 80,0 166,22 258,66 92,44 182,90 270,138 8,408 -4,1009 -36,1801 -40,848 -60,1461 -60,1837 0,400 12,764 36,1093 16,168 88,488 216,960 336,-376 600,-876 792,-1501 64,-208 192,-776 384,-1705 152,-704 324,-1257 516,-1657 56,-112 104,-324 144,-636 40,-312 88,-528 144,-648 88,-192 240,-288 456,-288 280,0 480,88 600,264zm2917 -720c0,160 -116,300 -348,420 -64,32 -132,36 -204,12 -112,-32 -172,-48 -180,-48 -48,0 -96,24 -144,72 -432,432 -648,961 -648,1585 0,232 36,448 108,648 32,88 336,708 912,1861 384,768 576,1421 576,1957 0,440 -108,864 -324,1273 -72,136 -252,312 -540,528 -232,168 -440,252 -624,252 -72,0 -140,-12 -204,-36 -240,-104 -360,-236 -360,-396 0,-96 60,-212 180,-348 32,-40 108,-64 228,-72 120,-8 200,-56 240,-144 168,-352 252,-712 252,-1081 0,-520 -258,-1275 -774,-2263 -516,-988 -774,-1779 -774,-2371 0,-488 96,-924 288,-1309 216,-440 524,-756 924,-949 184,-88 364,-132 540,-132 336,0 588,92 756,276 80,88 120,176 120,264zm4886 6603c48,40 72,96 72,168 0,48 -32,168 -96,360 -32,-8 -60,-12 -84,-12 -48,0 -110,20 -186,60 -76,40 -134,60 -174,60 -40,0 -84,-16 -132,-48 -536,-336 -1369,-840 -2497,-1513 24,296 44,720 60,1273 0,64 8,160 24,288 16,128 24,220 24,276 0,192 -84,324 -252,396 -48,32 -116,48 -204,48 -96,0 -156,-28 -180,-84 -208,-72 -328,-212 -360,-420 -96,-576 -144,-1253 -144,-2029 0,-280 8,-698 24,-1255 16,-556 24,-975 24,-1255 0,-848 -56,-1585 -168,-2209 -16,-96 40,-160 168,-192 96,-16 196,-32 300,-48 104,32 212,70 324,114 112,44 172,114 180,210 120,1089 172,1953 156,2593 328,-296 704,-688 1129,-1177 360,-408 716,-820 1069,-1237 96,-40 200,-60 312,-60 312,0 476,108 492,324 -224,496 -664,1085 -1321,1765 -768,792 -1261,1357 -1477,1693 496,296 997,592 1501,888 560,352 1033,692 1417,1021zm4286 -6447c-224,904 -636,2081 -1237,3530 -704,1689 -1157,2853 -1357,3494 -40,128 -60,288 -60,480 8,264 8,432 0,504 -24,280 -172,420 -444,420 -136,16 -282,-30 -438,-138 -156,-108 -230,-222 -222,-342 24,-584 172,-1253 444,-2005 248,-640 496,-1281 744,-1921 -568,-1521 -1053,-2633 -1453,-3338 -24,-40 -36,-80 -36,-120 0,-88 50,-170 150,-246 100,-76 198,-114 294,-114 16,0 168,44 456,132 200,304 408,696 624,1177 184,408 364,816 540,1225 160,-480 320,-956 480,-1429 184,-552 388,-1009 612,-1369 64,-112 176,-168 336,-168 224,0 412,76 564,228z"/>
 </g>
</svg>
